<?xml version="1.0" encoding="UTF-8" standalone="no"?>
<svg
   xmlns:dc="http://purl.org/dc/elements/1.1/"
   xmlns:cc="http://creativecommons.org/ns#"
   xmlns:rdf="http://www.w3.org/1999/02/22-rdf-syntax-ns#"
   xmlns:svg="http://www.w3.org/2000/svg"
   xmlns="http://www.w3.org/2000/svg"
   xmlns:sodipodi="http://sodipodi.sourceforge.net/DTD/sodipodi-0.dtd"
   xmlns:inkscape="http://www.inkscape.org/namespaces/inkscape"
   inkscape:export-ydpi="183"
   inkscape:export-xdpi="183"
   inkscape:export-filename="/home/dieb/Imagens/logo-indow.jpg.png"
   sodipodi:docname="indow.svg"
   inkscape:version="1.0 (1.0+r73)"
   id="svg8"
   version="1.1"
   viewBox="0 0 242.69026 121.62979"
   height="121.62979mm"
   width="242.69026mm">
  <defs
     id="defs2" />
  <sodipodi:namedview
     inkscape:pagecheckerboard="true"
     inkscape:window-maximized="1"
     inkscape:window-y="27"
     inkscape:window-x="41"
     inkscape:window-height="713"
     inkscape:window-width="1325"
     showgrid="false"
     inkscape:document-rotation="0"
     inkscape:current-layer="layer1"
     inkscape:document-units="px"
     inkscape:cy="-76.635249"
     inkscape:cx="567.07051"
     inkscape:zoom="0.35"
     inkscape:pageshadow="2"
     inkscape:pageopacity="0.0"
     borderopacity="1.0"
     bordercolor="#666666"
     pagecolor="#ffffff"
     id="base" />
  <metadata
     id="metadata5">
    <rdf:RDF>
      <cc:Work
         rdf:about="">
        <dc:format>image/svg+xml</dc:format>
        <dc:type
           rdf:resource="http://purl.org/dc/dcmitype/StillImage" />
        <dc:title></dc:title>
      </cc:Work>
    </rdf:RDF>
  </metadata>
  <g
     transform="translate(-3.1115796,-174.41528)"
     id="layer1"
     inkscape:groupmode="layer"
     inkscape:label="Layer 1">
    <g
       id="g3347">
      <path
         id="rect3268"
         style="fill:#ffffff;fill-opacity:1;stroke:#f4f3ed;stroke-width:0;stroke-linecap:round;stroke-linejoin:miter;stroke-miterlimit:0;stroke-dasharray:none;paint-order:fill markers stroke"
         d="M 3.1115801,174.41528 V 296.04507 H 245.80183 V 272.96276 H 24.464071 V 197.4976 H 245.80183 v -23.08232 z" />
      <g
         aria-label="indow"
         transform="matrix(3.086558,0,0,4.01999,-390.24158,-356.41971)"
         id="text1565"
         style="font-style:normal;font-variant:normal;font-weight:normal;font-stretch:normal;font-size:18.2146px;line-height:1.25;font-family:Tabardo;-inkscape-font-specification:'Tabardo, Normal';font-variant-ligatures:normal;font-variant-caps:normal;font-variant-numeric:normal;font-variant-east-asian:normal;text-align:start;letter-spacing:0px;word-spacing:0px;writing-mode:lr-tb;text-anchor:start;fill:#ffffff;fill-opacity:1;stroke:none;stroke-width:0.455367"
         clip-path="none">
        <path
           d="m 138.97214,153.45189 c 0,0.71037 0.58287,1.2568 1.25681,1.2568 h 2.67755 c 0.69215,0 1.2568,-0.54643 1.2568,-1.2568 v -9.14373 c 0,-0.69216 -0.56465,-1.25681 -1.2568,-1.25681 h -2.67755 c -0.67394,0 -1.25681,0.56465 -1.25681,1.25681 z m 0,-12.53165 c 0,0.69216 0.58287,1.2386 1.25681,1.2386 h 2.69576 c 0.67394,0 1.23859,-0.54644 1.23859,-1.2386 v -0.29143 c 0,-0.67394 -0.56465,-1.22038 -1.23859,-1.22038 h -2.69576 c -0.67394,0 -1.25681,0.54644 -1.25681,1.22038 z"
           style="font-style:normal;font-variant:normal;font-weight:normal;font-stretch:normal;font-size:18.2146px;font-family:Tabardo;-inkscape-font-specification:'Tabardo, Normal';font-variant-ligatures:normal;font-variant-caps:normal;font-variant-numeric:normal;font-variant-east-asian:normal;fill:#ffffff;stroke-width:0.455367"
           id="path1567" />
        <path
           d="m 146.75405,143.05135 c -0.69216,0 -1.25681,0.54644 -1.25681,1.23859 v 9.16195 c 0,0.71037 0.56465,1.2568 1.25681,1.2568 h 2.71397 c 0.67394,0 1.23859,-0.54643 1.23859,-1.2568 v -6.24761 c 0,-0.34608 0.27322,-0.63751 0.6193,-0.63751 0.34608,0 0.63751,0.29143 0.63751,0.63751 v 6.24761 c 0,0.71037 0.54644,1.2568 1.23859,1.2568 h 2.67755 c 0.69215,0 1.25681,-0.54643 1.25681,-1.2568 v -5.75582 c 0,-2.80504 -0.6193,-4.68115 -3.80685,-4.68115 -2.33147,0 -2.62291,2.38611 -2.62291,2.38611 v -1.11109 c 0,-0.69215 -0.56465,-1.23859 -1.23859,-1.23859 z"
           style="font-style:normal;font-variant:normal;font-weight:normal;font-stretch:normal;font-size:18.2146px;font-family:Tabardo;-inkscape-font-specification:'Tabardo, Normal';font-variant-ligatures:normal;font-variant-caps:normal;font-variant-numeric:normal;font-variant-east-asian:normal;fill:#ffffff;stroke-width:0.455367"
           id="path1569" />
        <path
           d="m 169.96258,141.63061 c 0,-0.69215 -0.56466,-1.23859 -1.2386,-1.23859 h -2.67754 c -0.71037,0 -1.27503,0.54644 -1.27503,1.23859 v 3.66114 c -0.43715,-1.31145 -1.67574,-2.25861 -3.15112,-2.25861 h -0.16393 c -1.83968,0 -3.33327,1.49359 -3.33327,3.33327 v 5.00901 c 0,1.83968 1.49359,3.33327 3.33327,3.33327 h 0.16393 c 1.47538,0 2.71397,-0.94715 3.15112,-2.25861 v 1.00181 c 0,0.71037 0.56466,1.2568 1.27503,1.2568 h 2.67754 c 0.67394,0 1.2386,-0.54643 1.2386,-1.2568 z m -5.19117,8.39693 c 0,0.52823 -0.40072,0.94716 -0.94715,0.94716 -0.52823,0 -0.94716,-0.41893 -0.94716,-0.94716 v -2.25861 c 0,-0.51001 0.41893,-0.92894 0.96537,-0.92894 0.52822,0 0.92894,0.41893 0.92894,0.92894 z"
           style="font-style:normal;font-variant:normal;font-weight:normal;font-stretch:normal;font-size:18.2146px;font-family:Tabardo;-inkscape-font-specification:'Tabardo, Normal';font-variant-ligatures:normal;font-variant-caps:normal;font-variant-numeric:normal;font-variant-east-asian:normal;fill:#ffffff;stroke-width:0.455367"
           id="path1571" />
        <path
           d="m 175.46566,148.26073 c -0.0911,-0.18215 -0.1275,-0.38251 -0.1275,-0.56466 0,-0.61929 0.51001,-1.20216 1.18395,-1.20216 0.40072,0 0.78323,0.21858 0.98359,0.58287 l 1.40252,2.40432 c 0.10929,0.18215 0.14572,0.38251 0.14572,0.56466 0,0.60108 -0.52822,1.20216 -1.18395,1.20216 -0.40072,0 -0.78323,-0.21857 -1.0018,-0.60108 z m -4.57186,0.47358 c 0,4.75401 2.18575,6.21117 6.30225,6.21117 4.28043,0 6.30225,-1.47538 6.30225,-6.21117 0,-4.64473 -2.02182,-5.95618 -6.32046,-5.95618 -4.08007,0 -6.28404,1.31145 -6.28404,5.95618 z"
           style="font-style:normal;font-variant:normal;font-weight:normal;font-stretch:normal;font-size:18.2146px;font-family:Tabardo;-inkscape-font-specification:'Tabardo, Normal';font-variant-ligatures:normal;font-variant-caps:normal;font-variant-numeric:normal;font-variant-east-asian:normal;fill:#ffffff;stroke-width:0.455367"
           id="path1573" />
        <path
           d="m 200.95557,143.92565 c 0,-0.0364 0.0182,-0.0729 0.0182,-0.10929 0,-0.41893 -0.34608,-0.76501 -0.78323,-0.76501 h -3.22399 c -0.60108,0 -1.16573,0.36429 -1.2568,0.94716 l -0.63751,4.40793 -0.92895,-4.3715 c -0.1275,-0.58287 -0.61929,-0.98359 -1.22038,-0.98359 h -0.83787 c -0.60108,0 -1.09287,0.38251 -1.22038,0.98359 l -0.98358,4.3715 -0.58287,-4.28043 c -0.0729,-0.61929 -0.60108,-1.07466 -1.23859,-1.07466 h -3.26042 c -0.3825,0 -0.78323,0.23679 -0.78323,0.60108 0.0547,0.65573 0.16394,1.38431 0.30965,2.34969 0.34608,2.20396 0.58287,3.71577 0.78323,4.73579 0.23679,1.23859 0.45537,2.33147 0.72858,3.42435 0.0911,0.34607 0.40073,0.54643 0.7468,0.54643 h 3.53364 c 0.49179,0 0.98358,-0.255 1.1293,-0.76501 l 1.23859,-4.08007 1.2386,4.06186 c 0.16393,0.51001 0.61929,0.78322 1.14752,0.78322 h 3.40613 c 0.36429,0 0.65572,-0.21857 0.74679,-0.56465 0.10929,-0.40072 0.21858,-0.81966 0.30965,-1.27502 0.25501,-1.09288 0.54644,-2.47719 0.7468,-3.55185 0.21858,-1.16573 0.45537,-2.29504 0.60108,-3.3697 z"
           style="font-style:normal;font-variant:normal;font-weight:normal;font-stretch:normal;font-size:18.2146px;font-family:Tabardo;-inkscape-font-specification:'Tabardo, Normal';font-variant-ligatures:normal;font-variant-caps:normal;font-variant-numeric:normal;font-variant-east-asian:normal;fill:#ffffff;stroke-width:0.455367"
           id="path1575" />
      </g>
      <circle
         style="fill:#fbb77a;fill-opacity:1;stroke:#f4f3ed;stroke-width:0;stroke-linecap:round;stroke-linejoin:miter;stroke-miterlimit:0;stroke-dasharray:none;paint-order:fill markers stroke"
         id="path3277"
         cx="15.225533"
         cy="185.79488"
         r="8.679841" />
    </g>
  </g>
</svg>
