<?xml version="1.0" encoding="UTF-8" standalone="no"?>
<svg
   xmlns:dc="http://purl.org/dc/elements/1.1/"
   xmlns:cc="http://creativecommons.org/ns#"
   xmlns:rdf="http://www.w3.org/1999/02/22-rdf-syntax-ns#"
   xmlns:svg="http://www.w3.org/2000/svg"
   xmlns="http://www.w3.org/2000/svg"
   xmlns:xlink="http://www.w3.org/1999/xlink"
   xmlns:sodipodi="http://sodipodi.sourceforge.net/DTD/sodipodi-0.dtd"
   xmlns:inkscape="http://www.inkscape.org/namespaces/inkscape"
   id="ae5f5559-570c-4c14-9324-22f1786600a2"
   data-name="Layer 1"
   width="1260"
   height="750"
   viewBox="0 0 1260 750"
   version="1.1"
   sodipodi:docname="hmtlcss.svg"
   inkscape:version="0.92.4 (unknown)">
  <metadata
     id="metadata77">
    <rdf:RDF>
      <cc:Work
         rdf:about="">
        <dc:format>image/svg+xml</dc:format>
        <dc:type
           rdf:resource="http://purl.org/dc/dcmitype/StillImage" />
      </cc:Work>
    </rdf:RDF>
  </metadata>
  <defs
     id="defs75">
    <linearGradient
       inkscape:collect="always"
       id="linearGradient926">
      <stop
         style="stop-color:#f1c790;stop-opacity:1;"
         offset="0"
         id="stop922" />
      <stop
         style="stop-color:#f1c790;stop-opacity:0;"
         offset="1"
         id="stop924" />
    </linearGradient>
    <linearGradient
       inkscape:collect="always"
       xlink:href="#linearGradient926"
       id="linearGradient928"
       x1="229.62166"
       y1="548.34717"
       x2="836.30811"
       y2="98.126808"
       gradientUnits="userSpaceOnUse"
       gradientTransform="matrix(2.0998115,0,0,1.5619528,-435.24819,-46.198325)" />
  </defs>
  <sodipodi:namedview
     pagecolor="#ffffff"
     bordercolor="#666666"
     borderopacity="1"
     objecttolerance="10"
     gridtolerance="10"
     guidetolerance="10"
     inkscape:pageopacity="0"
     inkscape:pageshadow="2"
     inkscape:window-width="1325"
     inkscape:window-height="713"
     id="namedview73"
     showgrid="false"
     inkscape:zoom="0.4486692"
     inkscape:cx="610.46856"
     inkscape:cy="315.83863"
     inkscape:window-x="41"
     inkscape:window-y="27"
     inkscape:window-maximized="1"
     inkscape:current-layer="ae5f5559-570c-4c14-9324-22f1786600a2" />
  <title
     id="title2">static_website</title>
  <rect
     style="opacity:1;fill:url(#linearGradient928);fill-opacity:1;fill-rule:nonzero;stroke:#f4f3ed;stroke-width:0;stroke-linecap:round;stroke-miterlimit:4;stroke-dasharray:none;stroke-opacity:0.95100864;paint-order:fill markers stroke"
     id="rect884"
     width="1259.8868"
     height="749.73737"
     x="0.11310972"
     y="0.26262903" />
  <rect
     x="-263.2551"
     y="567.93884"
     width="425.81039"
     height="706.46692"
     transform="matrix(0.25310122,-0.9674398,0.95632312,0.29231163,0,0)"
     id="rect4"
     style="fill:#3f3d56;stroke-width:1.37154794" />
  <ellipse
     cx="595.94714"
     cy="25.982355"
     id="circle6"
     style="fill:#efc583;stroke-width:1.37097812"
     rx="5.595428"
     ry="6.048099" />
  <ellipse
     cx="613.17688"
     cy="31.248835"
     id="circle8"
     style="fill:#efc583;stroke-width:1.37097812"
     rx="5.595428"
     ry="6.048099" />
  <ellipse
     cx="630.40656"
     cy="36.515301"
     id="circle10"
     style="fill:#efc583;stroke-width:1.37097812"
     rx="5.595428"
     ry="6.048099" />
  <path
     d="m 942.83091,270.14716 a 65.368632,70.656963 0 0 0 -27.30149,0.69648 65.251995,70.530892 0 0 0 1.92998,-29.81824 64.870412,70.118437 0 0 0 -24.40392,17.0224 64.869579,70.117539 0 0 0 -12.5426,-28.31552 65.251259,70.530093 0 0 0 -12.80257,26.4949 65.368949,70.657305 0 0 0 -22.92089,-16.04755 c 0,0 -4.07495,22.40089 5.73541,40.7821 8.73161,16.36002 25.50773,24.01592 29.09406,25.50304 l 0.084,0.10895 0.0452,-0.0554 c 0.36393,0.14902 0.56773,0.22546 0.56773,0.22546 0,0 0.0771,-0.43028 0.1833,-1.19812 0.0641,-0.0863 0.12955,-0.17378 0.20095,-0.27027 0.0145,0.12259 0.027,0.23403 0.0401,0.34383 -0.28158,0.71434 -0.42447,1.12462 -0.42447,1.12462 0,0 0.2105,0.0503 0.59294,0.12927 l 0.0129,0.073 0.12423,-0.0451 c 3.77589,0.76321 21.77674,3.73729 37.14155,-5.25733 17.26313,-10.10586 24.64482,-31.49605 24.64482,-31.49605 z"
     id="path12"
     inkscape:connector-curvature="0"
     style="fill:#efc583;stroke-width:1.37097812" />
  <ellipse
     cx="909.34802"
     cy="197.20038"
     id="circle14"
     style="fill:#efc583;stroke-width:1.37097812"
     rx="14.54811"
     ry="15.725057" />
  <rect
     x="701.83783"
     y="64.681801"
     width="457.17178"
     height="10.627603"
     transform="matrix(0.95632312,0.29231163,-0.25310122,0.9674398,0,0)"
     id="rect16"
     style="fill:#efc583;stroke-width:1.37154794" />
  <rect
     x="744.62738"
     y="117.62037"
     width="78.822723"
     height="84.220482"
     transform="matrix(0.95632312,0.29231163,-0.25310122,0.9674398,0,0)"
     id="rect18"
     style="fill:#efc583;stroke-width:1.37154794" />
  <rect
     x="891.01245"
     y="117.62035"
     width="78.822723"
     height="84.220482"
     transform="matrix(0.95632312,0.29231163,-0.25310122,0.9674398,0,0)"
     id="rect20"
     style="fill:#efc583;stroke-width:1.37154794" />
  <rect
     x="1037.3976"
     y="117.62035"
     width="78.822723"
     height="84.220482"
     transform="matrix(0.95632312,0.29231163,-0.25310122,0.9674398,0,0)"
     id="rect22"
     style="fill:#efc583;stroke-width:1.37154794" />
  <rect
     x="754.76178"
     y="218.68498"
     width="58.554024"
     height="7.2188921"
     transform="matrix(0.95632312,0.29231163,-0.25310122,0.9674398,0,0)"
     id="rect24"
     style="fill:#efc583;stroke-width:1.37154794" />
  <rect
     x="901.14679"
     y="218.68498"
     width="58.554024"
     height="7.2188921"
     transform="matrix(0.95632312,0.29231163,-0.25310122,0.9674398,0,0)"
     id="rect26"
     style="fill:#efc583;stroke-width:1.37154794" />
  <rect
     x="1047.5319"
     y="218.68501"
     width="58.554024"
     height="7.2188921"
     transform="matrix(0.95632312,0.29231163,-0.25310122,0.9674398,0,0)"
     id="rect28"
     style="fill:#efc583;stroke-width:1.37154794" />
  <ellipse
     cx="381.88852"
     cy="565.15375"
     rx="374.50369"
     ry="14.96624"
     id="ellipse30"
     style="fill:#d0cde1;stroke-width:1.37097812" />
  <ellipse
     cx="887.68243"
     cy="734.77106"
     rx="247.0356"
     ry="14.96624"
     id="ellipse32"
     style="fill:#d0cde1;stroke-width:1.26224971" />
  <path
     d="m 904.26291,618.60453 h 84.07592 v 38.00512 h -48.91528 v 38.00513 h 48.91967 v 38.00283 h -84.08031 z m 100.89339,0 h 84.0781 v 33.04774 h -48.9175 v 6.60905 h 48.9175 v 76.0103 h -84.076 v -34.70415 h 48.9176 v -6.60905 h -48.9219 v -74.35389 z m 100.8955,0 h 84.0782 v 33.04774 h -48.9176 v 6.60905 h 48.9176 v 76.0103 h -84.0782 v -34.70415 h 48.9176 v -6.60905 h -48.9154 v -74.35389 z"
     id="path34"
     inkscape:connector-curvature="0"
     style="fill:#3f3d56;stroke-width:1.37097812" />
  <path
     d="m 169.43653,444.71108 h 34.68418 v 37.03967 h 31.72862 v -37.03967 h 34.68628 V 556.8765 H 235.85145 V 519.31708 H 204.12281 V 556.8765 H 169.43867 V 444.71108 Z m 146.70779,37.19676 h -30.52975 v -37.19676 h 95.76931 v 37.19676 h -30.54899 v 74.96866 h -34.68414 v -74.96866 z m 80.43817,-37.19676 h 36.16512 l 22.24659,39.41199 22.22522,-39.41199 h 36.18007 V 556.8765 h -34.54312 v -55.59532 l -23.86224,39.8809 h -0.59835 l -23.8771,-39.8809 v 55.59532 h -33.93619 z m 134.07789,0 h 34.69484 v 75.0911 h 48.77583 V 556.8765 H 530.65823 V 444.71108 Z"
     id="path36"
     inkscape:connector-curvature="0"
     style="fill:#3f3d56;stroke-width:1.37097812" />
  <polygon
     points="97.146,368.25 82.034,366.091 79.876,390.558 97.146,389.118 "
     id="polygon38"
     transform="matrix(1.318675,0,0,1.4253559,0,1.4765276e-5)"
     style="fill:#ffb8b8" />
  <polygon
     points="51.092,368.25 66.203,366.091 68.362,390.558 51.092,389.118 "
     id="polygon40"
     transform="matrix(1.318675,0,0,1.4253559,0,1.4765276e-5)"
     style="fill:#ffb8b8" />
  <path
     d="m 147.08234,254.1063 c 0,0 7.59134,49.23294 7.59134,56.41275 0,7.17983 -2.84675,53.33568 -7.59134,62.56687 -4.74459,9.23115 -5.69351,13.33391 -3.79568,17.43665 1.89785,4.10273 0.94892,3.07702 0,6.15409 -0.94891,3.07706 -2.84676,2.05138 0,6.15411 a 9.9700009,10.776575 0 0 1 0,12.30823 c -1.89783,3.07706 3.79568,86.15762 -3.79566,92.31178 -7.59137,6.1541 -9.4892,26.66781 -9.4892,26.66781 l -24.67186,-3.07705 v -22.56513 c 0,0 -5.69351,-16.41093 -1.89785,-26.6678 3.79568,-10.25687 5.69351,-64.61822 5.69351,-64.61822 0,0 -0.9489,-5.12842 0,-8.20548 0.94893,-3.07704 0,-5.12841 -1.89783,-6.1541 -1.89783,-1.02571 -2.84675,-5.12845 -2.84675,-5.12845 l -2.84676,-74.87506 -11.387025,73.84928 c 0,0 11.387025,100.51724 0,113.85115 V 534.1185 H 65.475374 l 3.795661,-25.64214 c 0,0 -7.591343,-23.59078 -3.795661,-28.71921 3.795661,-5.12842 -11.387024,-87.18331 -9.489194,-90.26035 1.897831,-3.07704 0.948925,-4.10274 0,-6.1541 -0.948904,-2.0514 -3.795661,-4.10277 -2.846755,-6.15413 0.948925,-2.05138 0,-6.15411 0,-6.15411 0,0 -18.029443,-96.41449 -9.489176,-105.64565 8.54027,-9.23119 103.432091,-11.28251 103.432091,-11.28251 z"
     id="path42"
     inkscape:connector-curvature="0"
     style="fill:#2f2e41;stroke-width:1.37097812" />
  <path
     d="m 111.02346,543.34974 c 0,0 1.89783,-9.83688 17.08051,-6.45697 0,0 3.79566,8.50834 3.79566,12.61108 0,4.10275 3.79569,31.79625 3.79569,31.79625 0,0 15.18268,27.69354 -3.79569,27.69354 -18.97836,0 -25.62078,-7.17979 -26.56969,-14.35961 -0.94892,-7.17979 0.94891,-9.23115 -2.84675,-12.30821 -3.795685,-3.07707 -5.693516,-3.07707 -4.744612,-7.17982 0.948927,-4.10273 2.846752,-24.61646 2.846752,-24.61646 0,0 0.94893,-15.3853 6.16799,-11.28254 l 5.21904,4.10274"
     id="path44"
     inkscape:connector-curvature="0"
     style="fill:#2f2e41;stroke-width:1.37097812" />
  <path
     d="m 84.453721,543.34974 c 0,0 -1.897829,-9.83688 -17.080516,-6.45697 0,0 -3.795661,8.50834 -3.795661,12.61108 0,4.10275 -3.795682,31.79625 -3.795682,31.79625 0,0 -15.182707,27.69354 3.795682,27.69354 18.978369,0 25.620786,-7.17979 26.569691,-14.35961 0.948927,-7.17979 -0.948905,-9.23115 2.846756,-12.30821 3.795683,-3.07707 5.693514,-3.07707 4.744587,-7.17982 -0.948904,-4.10273 -2.846755,-24.61646 -2.846755,-24.61646 0,0 -0.948906,-15.3853 -6.167967,-11.28254 l -5.219039,4.10274"
     id="path46"
     inkscape:connector-curvature="0"
     style="fill:#2f2e41;stroke-width:1.37097812" />
  <ellipse
     cx="111.97234"
     cy="37.686581"
     id="circle48"
     style="fill:#ffb8b8;stroke-width:1.37097812"
     rx="25.6208"
     ry="27.693525" />
  <path
     d="m 91.096162,41.789335 c 0,0 -10.4381,44.10449 -12.335953,45.13018 -1.897829,1.02568 43.650271,5.12843 43.650271,5.12843 0,0 -11.38702,-37.95039 0,-44.1045 z"
     id="path50"
     inkscape:connector-curvature="0"
     style="fill:#ffb8b8;stroke-width:1.37097812" />
  <path
     d="m 84.430016,68.666375 -0.0012,-0.006 -31.289373,23.38726 5.693512,183.597795 c 0,0 41.752395,-5.12843 51.241595,-4.10275 9.48919,1.02569 39.85457,-9.23118 39.85457,-9.23118 L 136.62853,89.792405 a 13.110162,14.170776 0 0 0 -12.14264,-12.95883 l -5.69899,-0.43439 c 0,0 -5.69309,15.23607 -22.822074,7.37572 a 19.986142,21.603024 0 0 1 -11.53481,-15.10886 z"
     id="path52"
     inkscape:connector-curvature="0"
     style="fill:#d0cde1;stroke-width:1.37097812" />
  <path
     d="M 85.186641,66.991755 46.497005,86.919515 38.905643,204.87342 c 0,0 -15.182688,70.77232 -2.846757,91.28604 12.335951,20.51369 33.212149,22.56511 33.212149,22.56511 0,0 27.518639,-117.95392 19.927295,-157.95565 -7.591364,-40.00171 -4.011689,-93.777165 -4.011689,-93.777165 z"
     id="path54"
     inkscape:connector-curvature="0"
     style="fill:#575a89;stroke-width:1.37097812" />
  <path
     d="m 12.335951,244.87514 v 15.38529 c 0,0 -5.6935125,33.84763 12.335929,32.82195 18.029422,-1.02568 9.489175,-36.92471 9.489175,-36.92471 l -5.693514,-11.28253 z"
     id="path56"
     inkscape:connector-curvature="0"
     style="fill:#ffb8b8;stroke-width:1.37097812" />
  <path
     d="m 179.34557,275.64572 -1.89783,17.43666 c 0,0 9.48918,34.87332 -8.54027,35.89901 -18.02947,1.02569 -4.9424,-35.68498 -4.9424,-35.68498 l 5.89126,-19.70207 z"
     id="path58"
     inkscape:connector-curvature="0"
     style="fill:#ffb8b8;stroke-width:1.37097812" />
  <path
     d="m 118.2159,72.814885 v 0 a 111.75354,120.79442 0 0 1 46.73178,26.25814 l 0.16401,0.15469 -13.28487,75.900765 -1.89783,27.69353 c 0,0 35.10997,135.39052 -5.69351,115.9025 0,0 -35.10998,-117.95391 -30.36539,-172.31525 4.74458,-54.361315 4.34572,-73.594385 4.34572,-73.594385 z"
     id="path60"
     inkscape:connector-curvature="0"
     style="fill:#575a89;stroke-width:1.37097812" />
  <path
     d="m 152.77585,98.202055 c 0.94891,-1.02569 12.33594,1.42536 12.33594,1.42536 0,0 20.87619,79.603805 20.87619,92.937735 0,13.33392 2.84676,89.23468 2.84676,89.23468 l -25.04843,2.72916 -20.2747,-105.45701 z"
     id="path62"
     inkscape:connector-curvature="0"
     style="fill:#575a89;stroke-width:1.37097812" />
  <path
     d="m 53.139425,86.919515 h -6.64242 c 0,0 -18.978389,8.20549 -19.927293,17.436665 C 25.620786,113.58735 0,206.92478 0,206.92478 L 6.6424385,254.10634 31.3143,250.0036 36.058886,197.69362 60.730787,140.25521 Z"
     id="path64"
     inkscape:connector-curvature="0"
     style="fill:#575a89;stroke-width:1.37097812" />
  <path
     d="m 106.9949,45.415565 0.98232,-7.40172 c 0.22894,-1.72519 1.16306,-3.99356 2.71591,-3.52439 1.32079,0.3991 4.19835,1.62117 4.68011,1.25228 1.80422,-1.3815 4.5345,1.03412 6.43176,-0.19313 0.7949,-0.51417 1.31339,-1.61575 2.23729,-1.68928 a 2.5484711,2.7546427 0 0 1 1.64243,0.80427 11.178685,12.083042 0 0 0 4.25157,2.49648 4.5731649,4.9431348 0 0 0 4.47587,-1.31869 2.377004,2.569304 0 0 1 0.79151,-0.82011 1.7757147,1.9193702 0 0 1 1.13812,0.0566 l 4.84758,1.4266 a 18.627022,20.133951 0 0 0 -2.49212,-16.57665 30.845407,33.340802 0 0 0 -7.06049,-7.47406 q -4.50307,-3.7029102 -9.29435,-6.9657202 a 30.18723,32.629378 0 0 0 -11.2918,-5.31001003 c -4.0879,-0.67098 -8.66521,0.52948 -11.236536,4.02948003 A 7.2353591,7.8207005 0 0 1 97.211505,0.40727477 2.6632358,2.8786919 0 0 0 97.383269,4.8211348 l -4.099755,-2.82983 c -1.152524,1.308 1.09923,3.67984 0.117373,5.14141 a 2.5051659,2.7078343 0 0 1 -1.103718,0.77895 18.793903,20.314331 0 0 0 -6.011382,4.0896902 22.431085,24.245763 0 0 0 -4.73434,9.42668 c -2.443006,7.57569 -4.218562,16.26354 -0.747553,23.35493 0.393504,0.80391 5.587765,14.0733 6.27978,14.59073 2.339337,1.74913 0.816511,-2.48395 2.492748,0 1.314462,1.94785 1.068405,-5.50727 3.021923,-3.87087 a 4.869867,5.2638398 0 0 0 5.300639,0.25767 c 0.809917,-0.60712 0.548953,-3.97849 0.11193,-7.07446 a 3.3743969,3.6473862 0 0 1 4.105466,-4.10353 c 2.43307,0.61868 4.8369,1.14731 4.87858,0.83308 z"
     id="path66"
     inkscape:connector-curvature="0"
     style="fill:#2f2e41;stroke-width:1.37097812" />
  <polygon
     points="125.57,199.504 120.533,199.504 117.655,134.02 "
     id="polygon68"
     transform="matrix(1.318675,0,0,1.4253559,0,1.4765276e-5)"
     style="opacity:0.2" />
  <polygon
     points="35.62,108.834 34.181,108.834 30.179,134.02 37.779,108.834 "
     id="polygon70"
     transform="matrix(1.318675,0,0,1.4253559,0,1.4765276e-5)"
     style="opacity:0.2" />
</svg>
